<svg aria-hidden="true" style="position: absolute; width: 0; height: 0; overflow: hidden;" version="1.1" xmlns="http://www.w3.org/2000/svg" xmlns:xlink="http://www.w3.org/1999/xlink">
<defs>
<symbol id="icon-logo" viewBox="0 0 30 32">
<path d="M18.434 31.429c-0.056 0-0.084 0.029-0.084 0.086v0.086c0 0.058 0.028 0.086 0.084 0.086h11.086c0.084 0 0.126-0.029 0.126-0.086v-0.086c0-0.058-0.042-0.086-0.126-0.086h-1.302c-0.868 0-1.484-0.158-1.848-0.474-0.336-0.316-0.616-0.834-0.84-1.553-1.4-4.428-2.702-8.856-3.905-13.283s-2.394-8.884-3.569-13.37c-0.168-0.604-0.168-1.107 0-1.509s0.56-0.604 1.176-0.604h2.52c0.084 0 0.126-0.043 0.126-0.129v-0.043c0-0.057-0.042-0.086-0.126-0.086h-16.797c-0.112 0-0.168 0.029-0.168 0.086v0.043c0 0.086 0.056 0.129 0.168 0.129h3.107c0.56 0 0.84 0.259 0.84 0.776 0 0.23-0.028 0.46-0.084 0.69-0.056 0.201-0.154 0.503-0.294 0.906-0.252 0.661-0.56 1.452-0.924 2.372-0.336 0.891-0.686 1.811-1.050 2.76s-0.714 1.869-1.050 2.76c-0.336 0.891-0.63 1.668-0.882 2.329-0.532 1.409-1.078 2.789-1.638 4.14-0.532 1.351-1.008 2.645-1.428 3.882-0.42 1.208-0.77 2.358-1.050 3.45-0.252 1.064-0.378 2.041-0.378 2.933 0 1.524 0.364 2.631 1.092 3.321s1.638 1.035 2.73 1.035c0.896 0 1.708-0.244 2.436-0.733 0.728-0.518 1.414-1.15 2.058-1.898 0.672-0.776 1.302-1.596 1.89-2.458 0.616-0.891 1.246-1.711 1.89-2.458 0.644-0.776 1.316-1.409 2.016-1.898 0.728-0.518 1.512-0.776 2.352-0.776 1.344 0 2.38 0.402 3.107 1.208s1.26 1.725 1.596 2.76c0.224 0.633 0.392 1.236 0.504 1.811 0.14 0.575 0.28 1.093 0.42 1.553 0.056 0.259 0.070 0.532 0.042 0.819 0 0.288-0.084 0.546-0.252 0.776-0.14 0.201-0.392 0.374-0.756 0.518-0.336 0.144-0.798 0.216-1.386 0.216h-1.428zM7.264 13.919c1.596 0 2.758 0.374 3.485 1.121 0.728 0.719 1.092 1.898 1.092 3.537v4.485c-0.616 0.46-1.218 0.949-1.806 1.466s-1.162 0.992-1.722 1.423c-0.56 0.431-1.106 0.791-1.638 1.078-0.532 0.259-1.064 0.388-1.596 0.388-0.784 0-1.498-0.244-2.142-0.733-0.644-0.518-0.966-1.366-0.966-2.545 0-0.719 0.112-1.538 0.336-2.458 0.252-0.949 0.532-1.898 0.84-2.846 0.336-0.949 0.672-1.855 1.008-2.717s0.616-1.596 0.84-2.2h2.268zM8.902 3.482c0.336-0.863 0.756-1.423 1.26-1.682 0.532-0.259 1.092-0.403 1.68-0.431v7.504c0 1.696-0.35 2.918-1.050 3.666s-1.876 1.121-3.527 1.121h-2.184c0.42-1.121 0.84-2.243 1.26-3.364 0.42-1.15 0.812-2.199 1.176-3.148s0.658-1.754 0.882-2.415c0.252-0.661 0.42-1.078 0.504-1.251zM19.4 18.792c0.056 0.201 0.112 0.446 0.168 0.733s0.084 0.561 0.084 0.819c0.028 0.259 0.014 0.503-0.042 0.733-0.028 0.201-0.112 0.345-0.252 0.431-0.056 0.029-0.154 0.043-0.294 0.043-0.28 0-0.616-0.058-1.008-0.173-0.364-0.144-0.868-0.216-1.512-0.216-0.784 0-1.54 0.172-2.268 0.518-0.728 0.316-1.456 0.719-2.184 1.208v-4.313c0-1.668 0.336-2.861 1.008-3.58 0.7-0.719 1.876-1.078 3.527-1.078h1.47c0.224 0.805 0.434 1.625 0.63 2.458 0.224 0.805 0.448 1.61 0.672 2.415zM16.629 13.66c-1.596 0-2.757-0.388-3.485-1.164-0.7-0.776-1.050-1.984-1.050-3.623v-7.504c0.98 0.029 1.708 0.244 2.184 0.647s0.812 0.949 1.008 1.639c0.308 1.093 0.7 2.516 1.176 4.27s0.994 3.666 1.554 5.736h-1.386z"></path>
</symbol>
<symbol id="icon-quotes" viewBox="0 0 35 32">
<path d="M14.521 6.4v10.751c0 8.297-5.427 13.92-13.066 15.431l-1.447-3.129c3.537-1.334 5.811-5.292 5.811-8.508h-5.818v-14.545h14.521zM34.909 6.4v10.751c0 8.297-5.452 13.921-13.091 15.431l-1.449-3.129c3.539-1.334 5.812-5.292 5.812-8.508h-5.793v-14.545h14.521z"></path>
</symbol>
</defs>
</svg>
